<?xml version="1.0" encoding="UTF-8"?>
<svg width="94px" height="94px" viewBox="0 0 94 94" version="1.1" xmlns="http://www.w3.org/2000/svg" xmlns:xlink="http://www.w3.org/1999/xlink">
    <!-- Generator: Sketch 50.2 (55047) - http://www.bohemiancoding.com/sketch -->
    <title>identity-integration-icon</title>
    <desc>Created with Sketch.</desc>
    <defs>
        <polygon id="path-1" points="0 0.0913271464 5.36929485 0.0913271464 5.36929485 8.62451021 0 8.62451021"></polygon>
    </defs>
    <g id="Page-Designs" stroke="none" stroke-width="1" fill="none" fill-rule="evenodd">
        <g id="GoHarbor-Homepage-UI-v2.0" transform="translate(-957.000000, -2065.000000)">
            <g id="identity-integration-icon" transform="translate(957.000000, 2065.000000)">
                <ellipse id="Oval" fill="#FFFFFF" cx="46.7368421" cy="46.8034188" rx="46.7368421" ry="46.8034188"></ellipse>
                <g id="User-icon" transform="translate(17.000000, 16.000000)">
                    <g id="Group-10" transform="translate(0.000000, 0.575472)">
                        <path d="M29.9306978,50.3055131 C28.770011,50.3055131 27.82635,49.3462923 27.82635,48.1673459 C27.82635,46.9888449 28.770011,46.0296241 29.9306978,46.0296241 C31.0912386,46.0296241 32.0348995,46.9888449 32.0348995,48.1673459 C32.0348995,49.3462923 31.0912386,50.3055131 29.9306978,50.3055131 M29.9306978,43.6542127 C27.4810084,43.6542127 25.4880234,45.6786571 25.4880234,48.1673459 C25.4880234,50.6557379 27.4810084,52.6809246 29.9306978,52.6809246 C32.3802411,52.6809246 34.3732262,50.6557379 34.3732262,48.1673459 C34.3732262,45.6786571 32.3802411,43.6542127 29.9306978,43.6542127" id="Fill-1" fill="#2B0076"></path>
                        <path d="M38.0246401,20.0572318 C36.4313628,19.8484925 34.9532481,19.1241405 33.789346,17.9625643 L32.10692,16.2841877 C31.8511655,16.0291279 31.494863,15.9072396 31.1392912,15.9531147 C30.7835733,15.9994352 30.4690683,16.208323 30.2846328,16.520838 C28.9738546,18.7419962 26.5756083,20.1216649 24.02654,20.1216649 L21.8366971,20.1216649 L21.8366971,19.0006191 C21.8366971,14.466701 25.4676799,10.7782809 29.9306686,10.7782809 C34.3938034,10.7782809 38.0246401,14.466701 38.0246401,19.0006191 L38.0246401,20.0572318 Z M38.0246401,25.3759265 C38.0246401,29.9098446 34.3938034,33.5981162 29.9306686,33.5981162 C25.4676799,33.5981162 21.8366971,29.9098446 21.8366971,25.3759265 L21.8366971,22.4970763 L24.02654,22.4970763 C26.9016588,22.4970763 29.6309244,21.1678851 31.4447351,18.9531109 L32.1503252,19.6571235 C33.7550018,21.2588931 35.8130216,22.2308817 38.0246401,22.4495681 L38.0246401,25.3759265 Z M29.9306686,8.40286948 C24.1779467,8.40286948 19.4983705,13.1572555 19.4983705,19.0006191 L19.4983705,25.3759265 C19.4983705,31.2192901 24.1783851,35.9735277 29.9306686,35.9735277 C35.6829521,35.9735277 40.3629668,31.2192901 40.3629668,25.3759265 L40.3629668,19.0006191 C40.3629668,13.1572555 35.6833906,8.40286948 29.9306686,8.40286948 Z" id="Fill-3" fill="#2B0076"></path>
                        <path d="M51.2045597,57.9067258 L47.7021849,57.9067258 L47.7021849,43.2384117 C47.7021849,43.1468099 47.6988235,43.0562474 47.695316,42.9658333 C49.8185166,44.1443343 51.2045597,46.4303709 51.2045597,48.9670133 L51.2045597,57.9067258 Z M45.3638582,57.9067258 L19.1753307,57.9067258 L19.1753307,52.4036398 C19.1753307,51.7477293 18.6518378,51.2160826 18.0061673,51.2160826 C17.3604969,51.2160826 16.837004,51.7477293 16.837004,52.4036398 L16.837004,57.9067258 L14.4975082,57.9067258 L14.4975082,43.2384117 C14.4975082,40.5858195 16.6217318,38.4285005 19.2330581,38.4285005 L40.6284545,38.4285005 C43.2396346,38.4285005 45.3638582,40.5858195 45.3638582,43.2384117 L45.3638582,57.9067258 Z M12.1591816,43.2384117 L12.1591816,57.9067258 L8.65680672,57.9067258 L8.65680672,48.9670133 C8.65680672,46.4303709 10.042996,44.1443343 12.1660504,42.9658333 C12.1626891,43.0562474 12.1591816,43.1468099 12.1591816,43.2384117 Z M55.8943661,57.9067258 L53.5428864,57.9067258 L53.5428864,48.9670133 C53.5428864,44.8709133 50.8608257,41.259694 47.0011253,40.1212781 C45.8565144,37.7157286 43.4303544,36.0530891 40.6290391,36.0530891 L19.2330581,36.0530891 C16.4311582,36.0530891 14.004852,37.7157286 12.8602411,40.1212781 C9.00054074,41.259694 6.31848009,44.8709133 6.31848009,48.9670133 L6.31848009,57.9067258 L3.96758495,57.9067258 C3.3219145,57.9067258 2.79842163,58.438521 2.79842163,59.0944315 C2.79842163,59.750342 3.3219145,60.2821372 3.96758495,60.2821372 L55.8943661,60.2821372 C56.539452,60.2821372 57.0635294,59.750342 57.0635294,59.0944315 C57.0635294,58.438521 56.539452,57.9067258 55.8943661,57.9067258 Z" id="Fill-5" fill="#2B0076"></path>
                        <g id="Group-9">
                            <mask id="mask-2" fill="white">
                                <use xlink:href="#path-1"></use>
                            </mask>
                            <g id="Clip-8"></g>
                            <path d="M2.82293022,4.35782589 L5.02709536,2.11870369 C5.48336134,1.65475614 5.48336134,0.903235351 5.02709536,0.439287805 C4.57039094,-0.0246597399 3.83001827,-0.0246597399 3.37331385,0.439287805 L0.342550237,3.51811795 C0.123332115,3.74081277 -1.46145415e-05,4.04293541 -1.46145415e-05,4.35782589 C-1.46145415e-05,4.67271637 0.123332115,4.97498747 0.342550237,5.19768229 L3.37331385,8.27651244 C3.60173913,8.50841198 3.90075265,8.62451021 4.19991231,8.62451021 C4.49907198,8.62451021 4.79823164,8.50841198 5.02665692,8.27651244 C5.48336134,7.81256489 5.48336134,7.06089564 5.02665692,6.59694809 L2.82293022,4.35782589 Z" id="Fill-7" fill="#2B0076" mask="url(#mask-2)"></path>
                        </g>
                    </g>
                    <g id="Group-17" transform="translate(6.285714, 0.000000)" fill="#2B0076">
                        <path d="M12.712137,4.04602774 L9.67749942,1.01659422 C9.22012301,0.560090225 8.4792464,0.560090225 8.02128455,1.01659422 C7.56390814,1.47309821 7.56390814,2.21256163 8.02128455,2.66906562 L10.2286929,4.87226345 L8.02128455,7.07546127 C7.56390814,7.53196526 7.56390814,8.27157477 8.02128455,8.72807876 C8.24989957,8.95625771 8.54949942,9.07049327 8.84909926,9.07049327 C9.1486991,9.07049327 9.44829895,8.95625771 9.67691397,8.72807876 L12.712137,5.69864523 C13.1695134,5.24257948 13.1695134,4.50253173 12.712137,4.04602774" id="Fill-11"></path>
                        <path d="M6.11741316,0.22509664 C5.55934076,-0.101395015 4.84188182,0.0841282075 4.51432713,0.640551792 L0.228600389,7.91948967 C-0.0989543013,8.47576718 0.087508914,9.19200368 0.644849513,9.51893358 C0.831312729,9.62849454 1.0353392,9.68035339 1.23717026,9.68035339 C1.63849062,9.68035339 2.02956575,9.47379446 2.2473501,9.10347843 L6.53366228,1.82512487 C6.86121697,1.26811696 6.67475376,0.552026538 6.11741316,0.22509664" id="Fill-13"></path>
                        <path d="M49.6733615,8.6823261 C49.7168305,8.95915012 49.7390773,9.24152523 49.7390773,9.52287777 C49.7390773,9.80364599 49.7168305,10.0867515 49.6733615,10.3634294 C49.6121828,10.7531743 49.7522497,11.1474477 50.0455561,11.4117087 L50.996899,12.2699362 L50.0541914,13.8968434 L48.8341306,13.5030083 C48.4572525,13.382053 48.044516,13.4585995 47.7370127,13.707376 C47.2973459,14.0627917 46.8073311,14.3453129 46.2818971,14.5473433 C45.9126297,14.68875 45.6403992,15.0072072 45.5575592,15.3930078 L45.2888414,16.64434 L43.4056215,16.64434 L43.1374891,15.3930078 C43.0545028,15.0072072 42.7818332,14.68875 42.4125658,14.5473433 C41.8871318,14.3453129 41.3977025,14.0627917 40.9574502,13.707376 C40.6499469,13.4585995 40.2370641,13.3814686 39.8603323,13.5030083 L38.6402715,13.8968434 L37.6975639,12.2699362 L38.6494923,11.4117087 C38.9427986,11.1474477 39.0822801,10.7531743 39.0211014,10.3634294 C38.9776324,10.0867515 38.9558247,9.80364599 38.9558247,9.52287777 C38.9558247,9.24152523 38.9776324,8.95915012 39.0211014,8.6823261 C39.0822801,8.29258126 38.9427986,7.89830789 38.6494923,7.63419294 L37.6975639,6.77596544 L38.6402715,5.14905825 L39.8603323,5.54216297 C40.2376495,5.66370259 40.6499469,5.58730208 40.9574502,5.33852567 C41.3977025,4.98296384 41.8871318,4.70044265 42.4125658,4.49855832 C42.7818332,4.35700557 43.0545028,4.03854838 43.1374891,3.65289381 L43.4056215,2.40141551 L45.2888414,2.40141551 L45.5575592,3.65289381 C45.6403992,4.03854838 45.9126297,4.35700557 46.2818971,4.49855832 C46.8073311,4.70044265 47.2973459,4.98296384 47.7370127,5.33852567 C48.044516,5.58730208 48.4572525,5.66370259 48.8341306,5.54216297 L50.0541914,5.14905825 L50.996899,6.77596544 L50.0455561,7.63419294 C49.7522497,7.89830789 49.6121828,8.29258126 49.6733615,8.6823261 M53.2694378,11.1692138 L52.0603541,10.0793014 C52.0733801,9.89377813 52.0802591,9.70840099 52.0802591,9.52287777 C52.0802591,9.33808496 52.0733801,9.15197741 52.0603541,8.96718459 L53.2694378,7.87668786 C53.6793934,7.50739439 53.7748204,6.90203358 53.4981991,6.4243478 L51.6075148,3.16147639 C51.3313327,2.68510535 50.7590633,2.46539911 50.2342147,2.63485339 L48.6865993,3.13357487 C48.3783642,2.92467864 48.0559321,2.73871718 47.720913,2.57656696 L47.3801859,0.988517395 C47.2647075,0.449331401 46.7872797,0.0641150726 46.2356472,0.0641150726 L42.4588157,0.0641150726 C41.9070368,0.0641150726 41.4297554,0.449331401 41.314277,0.988517395 L40.9735499,2.57656696 C40.6385308,2.73871718 40.3159524,2.92467864 40.0078636,3.13357487 L38.4602482,2.63485339 C37.9353996,2.46539911 37.3631302,2.68510535 37.0869481,3.16147639 L35.1962638,6.4243478 C34.9194961,6.90203358 35.0150695,7.50739439 35.4248788,7.87668786 L36.6341088,8.96718459 C36.6209364,9.15197741 36.6140575,9.33808496 36.6140575,9.52287777 C36.6140575,9.70840099 36.6209364,9.89377813 36.6341088,10.0793014 L35.4248788,11.1692138 C35.0150695,11.5389455 34.9194961,12.143868 35.1962638,12.6214077 L37.0869481,15.8842792 C37.3631302,16.3613806 37.9353996,16.5805025 38.4602482,16.4114865 L40.0078636,15.9121807 C40.3159524,16.1210769 40.6385308,16.3071844 40.9735499,16.4691886 L41.314277,18.0578225 C41.4297554,18.5964241 41.9070368,18.9816405 42.4588157,18.9816405 L46.2356472,18.9816405 C46.7872797,18.9816405 47.2647075,18.5964241 47.3801859,18.0578225 L47.720913,16.4691886 C48.0559321,16.3071844 48.3783642,16.1210769 48.6865993,15.9121807 L50.2342147,16.4114865 C50.7590633,16.5805025 51.3313327,16.3613806 51.6075148,15.8842792 L53.4981991,12.6214077 C53.7748204,12.1444524 53.6793934,11.5389455 53.2694378,11.1692138" id="Fill-15"></path>
                    </g>
                    <g id="Group-46" transform="translate(0.000000, 8.632075)" fill="#2B0076">
                        <path d="M10.3005659,5.584721 L1.17076098,5.584721 C0.52422439,5.584721 2.92682927e-05,6.11477976 2.92682927e-05,6.76854849 C2.92682927e-05,7.42231722 0.52422439,7.95237598 1.17076098,7.95237598 L10.3005659,7.95237598 C10.9465171,7.95237598 11.4712976,7.42231722 11.4712976,6.76854849 C11.4712976,6.11477976 10.9465171,5.584721 10.3005659,5.584721" id="Fill-18"></path>
                        <path d="M17.1567512,5.584721 L14.3288488,5.584721 C13.6823122,5.584721 13.1581171,6.11477976 13.1581171,6.76854849 C13.1581171,7.42231722 13.6823122,7.95237598 14.3288488,7.95237598 L17.1567512,7.95237598 C17.8032878,7.95237598 18.3274829,7.42231722 18.3274829,6.76854849 C18.3274829,6.11477976 17.8032878,5.584721 17.1567512,5.584721" id="Fill-20"></path>
                        <path d="M7.02439024,16.9490062 L1.17073171,16.9490062 C0.524195122,16.9490062 0,17.479065 0,18.1328337 C0,18.7866024 0.524195122,19.3166612 1.17073171,19.3166612 L7.02439024,19.3166612 C7.67092683,19.3166612 8.19512195,18.7866024 8.19512195,18.1328337 C8.19512195,17.479065 7.67092683,16.9490062 7.02439024,16.9490062" id="Fill-22"></path>
                        <path d="M16.2462585,16.9490062 L11.1087951,16.9490062 C10.4622585,16.9490062 9.93806341,17.479065 9.93806341,18.1328337 C9.93806341,18.7866024 10.4622585,19.3166612 11.1087951,19.3166612 L16.2462585,19.3166612 C16.8927951,19.3166612 17.4169902,18.7866024 17.4169902,18.1328337 C17.4169902,17.479065 16.8927951,16.9490062 16.2462585,16.9490062" id="Fill-24"></path>
                        <path d="M2.68845366,11.2667822 L1.17074634,11.2667822 C0.524209756,11.2667822 1.46341463e-05,11.796841 1.46341463e-05,12.4506097 C1.46341463e-05,13.1043784 0.524209756,13.6344372 1.17074634,13.6344372 L2.68845366,13.6344372 C3.33499024,13.6344372 3.85918537,13.1043784 3.85918537,12.4506097 C3.85918537,11.796841 3.33499024,11.2667822 2.68845366,11.2667822" id="Fill-26"></path>
                        <path d="M16.2462585,11.2667822 L6.67347805,11.2667822 C6.02694146,11.2667822 5.50274634,11.796841 5.50274634,12.4506097 C5.50274634,13.1043784 6.02694146,13.6344372 6.67347805,13.6344372 L16.2462585,13.6344372 C16.8927951,13.6344372 17.4169902,13.1043784 17.4169902,12.4506097 C17.4169902,11.796841 16.8927951,11.2667822 16.2462585,11.2667822" id="Fill-28"></path>
                        <path d="M59.5987024,28.4379928 C59.3809463,28.2166171 59.0784585,28.0912794 58.7709951,28.0912794 C58.4628,28.0912794 58.1610439,28.2166171 57.9431415,28.4379928 C57.7253854,28.6583327 57.6002634,28.9636122 57.6002634,29.2751068 C57.6002634,29.5861575 57.7253854,29.891881 57.9431415,30.1116289 C58.1610439,30.3318209 58.4628,30.4589343 58.7709951,30.4589343 C59.0784585,30.4589343 59.3809463,30.3318209 59.5987024,30.1116289 C59.8158732,29.891881 59.9417268,29.5861575 59.9417268,29.2751068 C59.9417268,28.9622804 59.8164585,28.6583327 59.5987024,28.4379928" id="Fill-30"></path>
                        <path d="M54.5950829,28.0924632 L48.829961,28.0924632 C48.1834244,28.0924632 47.6592293,28.62193 47.6592293,29.2762907 C47.6592293,29.9300594 48.1834244,30.4601182 48.829961,30.4601182 L54.5950829,30.4601182 C55.2416195,30.4601182 55.7658146,29.9300594 55.7658146,29.2762907 C55.7658146,28.62193 55.2416195,28.0924632 54.5950829,28.0924632" id="Fill-32"></path>
                        <path d="M47.2117024,22.4091737 L44.2146293,22.4091737 C43.5680927,22.4091737 43.0438976,22.9392325 43.0438976,23.5930012 C43.0438976,24.24677 43.5680927,24.7768287 44.2146293,24.7768287 L47.2117024,24.7768287 C47.858239,24.7768287 48.3824341,24.24677 48.3824341,23.5930012 C48.3824341,22.9392325 47.858239,22.4091737 47.2117024,22.4091737" id="Fill-34"></path>
                        <path d="M58.7709659,22.4091737 L51.8272098,22.4091737 C51.1806732,22.4091737 50.656478,22.9392325 50.656478,23.5930012 C50.656478,24.24677 51.1806732,24.7768287 51.8272098,24.7768287 L58.7709659,24.7768287 C59.4175024,24.7768287 59.9416976,24.24677 59.9416976,23.5930012 C59.9416976,22.9392325 59.4175024,22.4091737 58.7709659,22.4091737" id="Fill-36"></path>
                        <path d="M51.4618829,0.375421294 C51.2441268,0.154045553 50.9422244,0.0285598383 50.6341756,0.0285598383 C50.3265659,0.0285598383 50.0242244,0.154045553 49.806322,0.375421294 C49.5885659,0.595613208 49.4634439,0.899708895 49.4634439,1.21238733 C49.4634439,1.52343801 49.5885659,1.82916146 49.806322,2.04935337 C50.0242244,2.26969326 50.3265659,2.39621482 50.6341756,2.39621482 C50.9422244,2.39621482 51.2441268,2.26969326 51.4618829,2.04935337 C51.679639,1.82916146 51.8049073,1.52343801 51.8049073,1.21238733 C51.8049073,0.899708895 51.679639,0.595613208 51.4618829,0.375421294" id="Fill-38"></path>
                        <path d="M27.6081659,17.2958973 C27.3904098,17.0755574 27.0885073,16.9490358 26.7804585,16.9490358 C26.4728488,16.9490358 26.1705073,17.0755574 25.9527512,17.2958973 C25.7348488,17.5160892 25.6097268,17.8212207 25.6097268,18.1328633 C25.6097268,18.443766 25.7348488,18.7496374 25.9527512,18.9698293 C26.1705073,19.1900212 26.4728488,19.3166908 26.7804585,19.3166908 C27.0885073,19.3166908 27.3904098,19.1900212 27.6081659,18.9698293 C27.8260683,18.7496374 27.9511902,18.443766 27.9511902,18.1328633 C27.9511902,17.8212207 27.8260683,17.5160892 27.6081659,17.2958973" id="Fill-40"></path>
                        <path d="M33.9889463,17.2958973 C33.7711902,17.0755574 33.4687024,16.9490358 33.161239,16.9490358 C32.8518732,16.9490358 32.5512878,17.0755574 32.3333854,17.2958973 C32.1156293,17.5160892 31.9905073,17.8212207 31.9905073,18.1328633 C31.9905073,18.443766 32.1156293,18.7496374 32.3333854,18.9698293 C32.5512878,19.1900212 32.8530439,19.3166908 33.161239,19.3166908 C33.4687024,19.3166908 33.7711902,19.1900212 33.9889463,18.9698293 C34.2061171,18.7496374 34.3319707,18.443766 34.3319707,18.1328633 C34.3319707,17.8212207 34.2067024,17.5160892 33.9889463,17.2958973" id="Fill-42"></path>
                        <path d="M18.8558195,39.3301676 C18.6385024,39.1099757 18.3373317,38.9833062 18.0285512,38.9833062 C17.7205024,38.9833062 17.4186,39.1099757 17.2008439,39.3301676 C16.9830878,39.5503595 16.8578195,39.856231 16.8578195,40.1671337 C16.8578195,40.4787763 16.9825024,40.7839078 17.2008439,41.0040997 C17.4186,41.2244396 17.7205024,41.3509612 18.0285512,41.3509612 C18.336161,41.3509612 18.6385024,41.2244396 18.8558195,41.0040997 C19.0735756,40.7839078 19.1992829,40.4798121 19.1992829,40.1671337 C19.1992829,39.856231 19.0735756,39.5503595 18.8558195,39.3301676" id="Fill-44"></path>
                    </g>
                </g>
            </g>
        </g>
    </g>
</svg>