<?xml version="1.0" encoding="UTF-8"?>
<svg width="94px" height="94px" viewBox="0 0 94 94" version="1.1" xmlns="http://www.w3.org/2000/svg" xmlns:xlink="http://www.w3.org/1999/xlink">
    <!-- Generator: Sketch 50.2 (55047) - http://www.bohemiancoding.com/sketch -->
    <title>image-replication-icon</title>
    <desc>Created with Sketch.</desc>
    <defs>
        <polygon id="path-1" points="0 0 60 0 60 60 0 60"></polygon>
    </defs>
    <g id="Page-Designs" stroke="none" stroke-width="1" fill="none" fill-rule="evenodd">
        <g id="GoHarbor-Homepage-UI-v2.0" transform="translate(-387.000000, -2319.000000)">
            <g id="image-replication-icon" transform="translate(387.000000, 2319.000000)">
                <ellipse id="Oval" fill="#FFFFFF" cx="46.7368421" cy="46.8034188" rx="46.7368421" ry="46.8034188"></ellipse>
                <g id="image-replicate" transform="translate(17.000000, 17.000000)">
                    <g id="Group-5">
                        <mask id="mask-2" fill="white">
                            <use xlink:href="#path-1"></use>
                        </mask>
                        <g id="Clip-4"></g>
                        <path d="M57.6563672,38.4375 L50.3907422,38.4375 L50.3907422,10.78125 C50.3907422,10.1340234 49.8660937,9.609375 49.2188672,9.609375 L40.4019141,9.609375 C39.7546875,9.609375 39.2300391,10.1340234 39.2300391,10.78125 C39.2300391,11.4284766 39.7546875,11.953125 40.4019141,11.953125 L48.046875,11.953125 L48.046875,39.609375 L48.046875,48.046875 L40.78125,48.046875 L40.78125,20.390625 C40.78125,19.7433984 40.2566016,19.21875 39.609375,19.21875 L11.953125,19.21875 L11.953125,11.953125 L31.3784766,11.953125 C32.0257031,11.953125 32.5503516,11.4284766 32.5503516,10.78125 C32.5503516,10.1340234 32.0257031,9.609375 31.3784766,9.609375 L21.5626172,9.609375 L21.5626172,2.34375 L57.6563672,2.34375 L57.6563672,38.4375 Z M38.4375,57.65625 L2.34375,57.65625 L2.34375,21.5625 L10.78125,21.5625 L38.4375,21.5625 L38.4375,49.21875 L38.4375,57.65625 Z M58.8282422,0 L20.3907422,0 C19.7435156,0 19.2188672,0.524648437 19.2188672,1.171875 L19.2188672,9.609375 L10.78125,9.609375 C10.1340234,9.609375 9.609375,10.1340234 9.609375,10.78125 L9.609375,19.21875 L1.171875,19.21875 C0.524648438,19.21875 0,19.7433984 0,20.390625 L0,58.828125 C0,59.4753516 0.524648438,60 1.171875,60 L39.609375,60 C40.2566016,60 40.78125,59.4753516 40.78125,58.828125 L40.78125,50.390625 L49.21875,50.390625 C49.8659766,50.390625 50.390625,49.8659766 50.390625,49.21875 L50.390625,40.78125 L58.828125,40.78125 C59.4753516,40.78125 60,40.2566016 60,39.609375 L60,1.171875 C60.0001172,0.524765625 59.4754688,0 58.8282422,0 Z" id="Fill-3" fill="#2B0076" mask="url(#mask-2)"></path>
                    </g>
                    <path d="M24.2412215,24.8275862 C23.6039523,24.8275862 23.0873753,25.3441631 23.0873753,25.9814324 C23.0873753,26.6187016 23.6039523,27.1352785 24.2412215,27.1352785 L32.8647215,27.1352785 L32.8647215,52.5198939 L7.4801061,52.5198939 L7.4801061,27.1352785 L16.279683,27.1352785 C16.9169523,27.1352785 17.4335292,26.6187016 17.4335292,25.9814324 C17.4335292,25.3441631 16.9169523,24.8275862 16.279683,24.8275862 L6.32625995,24.8275862 C5.68899072,24.8275862 5.17241379,25.3441631 5.17241379,25.9814324 L5.17241379,53.6737401 C5.17241379,54.3110093 5.68899072,54.8275862 6.32625995,54.8275862 L34.0185676,54.8275862 C34.6558369,54.8275862 35.1724138,54.3110093 35.1724138,53.6737401 L35.1724138,25.9814324 C35.1724138,25.3442785 34.6558369,24.8275862 34.0185676,24.8275862 L24.2412215,24.8275862 Z" id="Fill-1" fill="#2B0076"></path>
                    <path d="M20.6896552,26.8965517 C21.261,26.8965517 21.7241379,26.4640561 21.7241379,25.9305128 L21.7241379,25.7936251 C21.7241379,25.2600818 21.261,24.8275862 20.6896552,24.8275862 C20.1183103,24.8275862 19.6551724,25.2600818 19.6551724,25.7936251 L19.6551724,25.9305128 C19.6551724,26.4640561 20.1183103,26.8965517 20.6896552,26.8965517" id="Fill-6" fill="#2B0076"></path>
                    <path d="M36.2068966,11.3793103 C36.4789655,11.3793103 36.7458621,11.2686207 36.9382759,11.0762069 C37.1307931,10.8837931 37.2413793,10.6168966 37.2413793,10.3448276 C37.2413793,10.0727586 37.1307931,9.80586207 36.9382759,9.61344828 C36.7458621,9.42103448 36.4789655,9.31034483 36.2068966,9.31034483 C35.9348276,9.31034483 35.667931,9.42103448 35.4756207,9.61344828 C35.2831034,9.80586207 35.1724138,10.0727586 35.1724138,10.3448276 C35.1724138,10.6168966 35.2831034,10.8837931 35.4756207,11.0762069 C35.667931,11.2686207 35.9348276,11.3793103 36.2068966,11.3793103" id="Fill-8" fill="#2B0076"></path>
                </g>
            </g>
        </g>
    </g>
</svg>