<?xml version="1.0" encoding="UTF-8"?>
<svg width="94px" height="94px" viewBox="0 0 94 94" version="1.1" xmlns="http://www.w3.org/2000/svg" xmlns:xlink="http://www.w3.org/1999/xlink">
    <!-- Generator: Sketch 50.2 (55047) - http://www.bohemiancoding.com/sketch -->
    <title>international-icon</title>
    <desc>Created with Sketch.</desc>
    <defs>
        <polygon id="path-1" points="0 0 60 0 60 60 0 60"></polygon>
    </defs>
    <g id="Page-Designs" stroke="none" stroke-width="1" fill="none" fill-rule="evenodd">
        <g id="GoHarbor-Homepage-UI-v2.0" transform="translate(-958.000000, -2318.000000)">
            <g id="international-icon" transform="translate(958.000000, 2318.000000)">
                <ellipse id="Oval" fill="#FFFFFF" cx="46.7368421" cy="46.8034188" rx="46.7368421" ry="46.8034188"></ellipse>
                <g id="intl-icon" transform="translate(17.000000, 17.000000)">
                    <mask id="mask-2" fill="white">
                        <use xlink:href="#path-1"></use>
                    </mask>
                    <g id="Clip-2"></g>
                    <path d="M38.0687109,56.4057422 C39.6764062,54.9652734 41.1541406,53.0813672 42.4502344,50.7869531 C45.4447266,45.4852734 47.158125,38.5440234 47.3172656,31.1354297 L57.5844141,31.1354297 C57.0996094,43.0559766 49.0223437,53.0519531 38.0687109,56.4057422 Z M2.41570312,31.1354297 L12.6829687,31.1354297 C12.8421094,38.5439062 14.5553906,45.4851562 17.5498828,50.7869531 C18.8458594,53.0813672 20.3237109,54.9652734 21.9314062,56.4057422 C10.9777734,53.0519531 2.90050781,43.0559766 2.41570312,31.1354297 Z M21.9314062,3.59425781 C20.3237109,5.03472656 18.8458594,6.91863281 17.5498828,9.21316406 C14.5713281,14.48625 12.8603906,21.3813281 12.6854297,28.7450391 L2.42027344,28.7450391 C2.95394531,16.8772266 11.0143359,6.93679687 21.9314062,3.59425781 Z M28.8048047,31.1354297 L28.8048047,37.3994531 C26.0178516,37.9323047 23.904375,40.3866797 23.904375,43.3266797 C23.904375,46.8983203 27.5389453,50.4057422 28.8048047,51.5189063 L28.8048047,57.2804297 C25.3849219,56.7726562 22.1641406,54.095625 19.63125,49.6113281 C16.8341016,44.6592187 15.2305078,38.1351563 15.0737109,31.1354297 L28.8048047,31.1354297 Z M29.9392969,49.318125 C28.4950781,47.9496094 26.2948828,45.4175391 26.2948828,43.3266797 C26.2948828,41.3165625 27.9301172,39.6812109 29.9403516,39.6812109 C31.9503516,39.6812109 33.5857031,41.3165625 33.5857031,43.3266797 C33.5857031,45.4101562 31.3833984,47.9467969 29.9392969,49.318125 Z M16.5234375,18.2271094 C17.9172656,20.9817187 20.5425,23.1925781 20.9364844,23.5147266 C21.1566797,23.6948438 21.4249219,23.7848437 21.6932812,23.7848437 C21.9616406,23.7848437 22.2298828,23.6948438 22.4500781,23.5147266 C22.9904297,23.0728125 27.7291406,19.0783594 27.7291406,15 C27.7291406,11.6717578 25.0215234,8.96414062 21.6932812,8.96414062 C21.2524219,8.96414062 20.8230469,9.01289063 20.4087891,9.103125 C22.8084375,5.39296875 25.7257031,3.17671875 28.8048047,2.7196875 L28.8048047,28.7450391 L15.0760547,28.7450391 C15.1676953,25.0505859 15.6625781,21.4910156 16.5234375,18.2271094 Z M21.6932812,11.3545312 C23.7033984,11.3545312 25.33875,12.9898828 25.33875,15 C25.33875,17.0834766 23.1364453,19.6201172 21.6923437,20.9913281 C20.2480078,19.6228125 18.0478125,17.0908594 18.0478125,15 C18.0478125,12.9898828 19.6831641,11.3545312 21.6932812,11.3545312 Z M39.3227344,31.1354297 L44.9266406,31.1354297 C44.7697266,38.1350391 43.1661328,44.6592187 40.3689844,49.6113281 C37.8359766,54.095625 34.6151953,56.7726562 31.1954297,57.2804297 L31.1954297,51.4128516 C32.5551562,50.1965625 35.9763281,46.7922656 35.9763281,43.3267969 C35.9763281,40.4289844 33.9230859,38.0023828 31.1954297,37.4230078 L31.1954297,2.7196875 C34.6151953,3.22746094 37.8360937,5.90449219 40.3689844,10.3887891 C43.1501953,15.3126562 44.7517969,21.7907812 44.9241797,28.7451562 L39.3227344,28.7451562 C38.6626172,28.7451562 38.1275391,29.2802344 38.1275391,29.9403516 C38.1275391,30.6004687 38.6626172,31.1354297 39.3227344,31.1354297 Z M50.2666406,11.2528125 C48.7098047,12.3457031 47.6893359,14.1529687 47.6893359,16.1951953 C47.6893359,20.2735547 52.4279297,24.2678906 52.9683984,24.7099219 C53.1884766,24.8900391 53.4568359,24.9800391 53.7251953,24.9800391 C53.9935547,24.9800391 54.2617969,24.8900391 54.4819922,24.7099219 C54.7014844,24.5303906 55.6130859,23.7651562 56.6187891,22.64625 C57.1659375,24.6309375 57.4884375,26.6719922 57.5808984,28.7450391 L47.3148047,28.7450391 C47.1398437,21.3813281 45.4287891,14.48625 42.4503516,9.21316406 C41.1535547,6.91734375 39.6748828,5.03261719 38.0661328,3.59179687 C42.6992578,5.00496094 46.9130859,7.6275 50.2666406,11.2528125 Z M57.3705469,16.1951953 C57.3705469,18.2786719 55.1682422,20.8153125 53.7242578,22.1866406 C52.2799219,20.8180078 50.0797266,18.2860547 50.0797266,16.1951953 C50.0797266,14.1850781 51.7149609,12.5498437 53.7251953,12.5498437 C55.7353125,12.5498437 57.3705469,14.1850781 57.3705469,16.1951953 Z M58.3972266,20.3060156 C59.1775781,19.0457812 59.7609375,17.6258203 59.7609375,16.1951953 C59.7609375,12.8669531 57.0533203,10.1593359 53.7251953,10.1593359 C53.3387109,10.1593359 52.9607812,10.1973047 52.5942187,10.2671484 C46.8869531,3.73570312 38.6866406,0 30,0 C21.9868359,0 14.4530859,3.12046875 8.78683594,8.78671875 C3.12046875,14.4530859 0,21.9868359 0,30 C0,38.0132812 3.12046875,45.5469141 8.78683594,51.2131641 C14.4530859,56.8795312 21.9868359,60 30,60 C38.0132812,60 45.5469141,56.8795312 51.2132812,51.2131641 C56.8796484,45.5469141 60,38.0132812 60,30 C60,26.6789062 59.4597656,23.4193359 58.3972266,20.3060156 Z" id="Fill-1" fill="#2B0076" mask="url(#mask-2)"></path>
                    <circle id="Oval" fill="#2B0076" mask="url(#mask-2)" cx="54.1071429" cy="16.6071429" r="1.60714286"></circle>
                    <circle id="Oval" fill="#2B0076" mask="url(#mask-2)" cx="29.4642857" cy="43.3928571" r="1.60714286"></circle>
                    <circle id="Oval" fill="#2B0076" mask="url(#mask-2)" cx="20.8928571" cy="15.5357143" r="1.60714286"></circle>
                </g>
            </g>
        </g>
    </g>
</svg>