<?xml version="1.0" encoding="UTF-8"?>
<svg width="94px" height="94px" viewBox="0 0 94 94" version="1.1" xmlns="http://www.w3.org/2000/svg" xmlns:xlink="http://www.w3.org/1999/xlink">
    <!-- Generator: Sketch 53.2 (72643) - https://sketchapp.com -->
    <title>multi-tenant-icon</title>
    <desc>Created with Sketch.</desc>
    <g id="Page-1" stroke="none" stroke-width="1" fill="none" fill-rule="evenodd">
        <g id="multi-tenant-icon" fill-rule="nonzero">
            <ellipse id="Oval" fill="#F5F1FE" cx="46.7368421" cy="46.8034188" rx="46.7368421" ry="46.8034188"></ellipse>
            <path d="M67.4,43.5714286 C59.8889274,43.5714286 53.8,49.7115234 53.8,57.2857143 C53.8,64.8599051 59.8889274,71 67.4,71 C74.9110726,71 81,64.8599051 81,57.2857143 C81,49.7115234 74.9110726,43.5714286 67.4,43.5714286 L67.4,43.5714286 Z M67.4,67.5714286 C61.7666956,67.5714286 57.2,62.9663574 57.2,57.2857143 C57.2,51.6050711 61.7666956,47 67.4,47 C73.0333044,47 77.6,51.6050711 77.6,57.2857143 C77.6,62.9663574 73.0333044,67.5714286 67.4,67.5714286 L67.4,67.5714286 Z M73.6336875,55.0003571 L69.6663125,55.0003571 L69.6663125,50.9996429 C69.6663125,50.6842488 69.4127658,50.4285714 69.1,50.4285714 L65.7,50.4285714 C65.3872342,50.4285714 65.1336875,50.6842488 65.1336875,50.9996429 L65.1336875,55.0003571 L61.1663125,55.0003571 C61.0161171,55.0003571 60.8720733,55.0605234 60.7658691,55.1676201 C60.6596649,55.2747168 60.6,55.419971 60.6,55.5714286 L60.6,59 C60.6,59.315394 60.8535467,59.5710714 61.1663125,59.5710714 L65.1336875,59.5710714 L65.1336875,63.5717857 C65.1336875,63.7232433 65.1933524,63.8684975 65.2995566,63.9755942 C65.4057608,64.0826909 65.5498046,64.1428571 65.7,64.1428571 L69.1,64.1428571 C69.4127658,64.1428571 69.6663125,63.8871798 69.6663125,63.5717857 L69.6663125,59.5710714 L73.6336875,59.5710714 C73.9464533,59.5710714 74.2,59.315394 74.2,59 L74.2,55.5714286 C74.2,55.2560345 73.9464533,55.0003571 73.6336875,55.0003571 Z M47,47 C53.5721885,47 58.9,41.627417 58.9,35 C58.9,28.372583 53.5721885,23 47,23 C40.4278115,23 35.1,28.372583 35.1,35 C35.0983076,38.1831208 36.3515105,41.2363594 38.5835604,43.487166 C40.8156103,45.7379726 43.8434053,47.0017066 47,47 L47,47 Z M47,26.4285714 C51.6944204,26.4285714 55.5,30.2661307 55.5,35 C55.5,39.7338693 51.6944204,43.5714286 47,43.5714286 C42.3055796,43.5714286 38.5,39.7338693 38.5,35 C38.5064379,30.2688224 42.3082489,26.4350634 47,26.4285714 Z M23.2,43.5714286 C27.8944204,43.5714286 31.7,39.7338693 31.7,35 C31.7,30.2661307 27.8944204,26.4285714 23.2,26.4285714 C18.5055796,26.4285714 14.7,30.2661307 14.7,35 C14.7,39.7338693 18.5055796,43.5714286 23.2,43.5714286 L23.2,43.5714286 Z M23.2,29.8571429 C26.0166522,29.8571429 28.3,32.1596784 28.3,35 C28.3,37.8403216 26.0166522,40.1428571 23.2,40.1428571 C20.3833478,40.1428571 18.1,37.8403216 18.1,35 C18.1,32.1596784 20.3833478,29.8571429 23.2,29.8571429 Z M53.8860625,67.5714286 L31.7,67.5714286 C30.7611159,67.5714286 30,66.8039167 30,65.8571429 L30,61.0571429 C29.9979697,59.2866355 30.5195704,57.5557381 31.498125,56.0857143 C32.964375,53.8892857 35.578125,52.5714286 38.47875,52.5714286 C41.379375,52.5714286 42.43125,53.8571429 47,53.8571429 C48.2971482,53.8716563 49.5918505,53.7401278 50.8600625,53.465 C51.1820251,52.1062351 51.6698963,50.7929931 52.3125,49.5553571 C50.8388125,49.9314286 49.5383125,50.4285714 47,50.4285714 C42.92,50.4285714 42.038125,49.1428571 38.489375,49.1428571 C34.6325,49.1428571 30.881875,50.8785714 28.6825,54.1678571 C27.3209692,56.2027144 26.5955846,58.6024174 26.6,61.0571429 L26.6,65.8571429 C26.6,68.6974644 28.8833478,71 31.7,71 L57.30625,71 C56.0113506,70.0257448 54.8598476,68.8714192 53.8860625,67.5714286 L53.8860625,67.5714286 Z M29.691875,48.3821429 C28.4077554,47.4879392 26.8855303,47.0061456 25.325,47 L21.075,47 C16.623125,47 13,50.8464286 13,55.5714286 C13,56.5182024 13.7611159,57.2857143 14.7,57.2857143 C15.6388841,57.2857143 16.4,56.5182024 16.4,55.5714286 C16.4,52.7321429 18.50375,50.4285714 21.075,50.4285714 L25.325,50.4285714 C25.8990803,50.4309955 26.4666567,50.5512975 26.993125,50.7821429 C27.7921592,49.8740283 28.6984911,49.0680268 29.691875,48.3821429 L29.691875,48.3821429 Z" id="Shape" fill="#2B0076"></path>
        </g>
    </g>
</svg>