<?xml version="1.0" encoding="UTF-8"?>
<svg width="94px" height="94px" viewBox="0 0 94 94" version="1.1" xmlns="http://www.w3.org/2000/svg" xmlns:xlink="http://www.w3.org/1999/xlink">
    <!-- Generator: Sketch 53.2 (72643) - https://sketchapp.com -->
    <title>multi-tenant-icon</title>
    <desc>Created with Sketch.</desc>
    <g id="Page-1" stroke="none" stroke-width="1" fill="none" fill-rule="evenodd">
        <g id="multi-tenant-icon" fill-rule="nonzero">
            <ellipse id="Oval" fill="#F5F1FE" cx="46.7368421" cy="46.8034188" rx="46.7368421" ry="46.8034188"></ellipse>
            <path d="M33.8,47 C40.1834375,47 45.35,41.8558036 45.35,35.5 C45.35,29.1441964 40.1834375,24 33.8,24 C27.4165625,24 22.25,29.1441964 22.25,35.5 C22.25,41.8558036 27.4165625,47 33.8,47 Z M41.72,50.2857143 L40.8640625,50.2857143 C38.7190625,51.3125 36.336875,51.9285714 33.8,51.9285714 C31.263125,51.9285714 28.89125,51.3125 26.7359375,50.2857143 L25.88,50.2857143 C19.32125,50.2857143 14,55.5839286 14,62.1142857 L14,65.0714286 C14,67.7924107 16.2171875,70 18.95,70 L48.65,70 C51.3828125,70 53.6,67.7924107 53.6,65.0714286 L53.6,62.1142857 C53.6,55.5839286 48.27875,50.2857143 41.72,50.2857143 Z M63.5,47 C68.965625,47 73.4,42.5848214 73.4,37.1428571 C73.4,31.7008929 68.965625,27.2857143 63.5,27.2857143 C58.034375,27.2857143 53.6,31.7008929 53.6,37.1428571 C53.6,42.5848214 58.034375,47 63.5,47 Z M68.45,50.2857143 L68.058125,50.2857143 C66.6246875,50.7785714 65.10875,51.1071429 63.5,51.1071429 C61.89125,51.1071429 60.3753125,50.7785714 58.941875,50.2857143 L58.55,50.2857143 C56.44625,50.2857143 54.5075,50.8915179 52.8059375,51.8669643 C55.3221875,54.5674107 56.9,58.1508929 56.9,62.1142857 L56.9,66.0571429 C56.9,66.2830357 56.8484375,66.4986607 56.838125,66.7142857 L75.05,66.7142857 C77.7828125,66.7142857 80,64.5066964 80,61.7857143 C80,55.4299107 74.8334375,50.2857143 68.45,50.2857143 L68.45,50.2857143 Z" id="Shape" stroke="#2B0076" fill="#2B0076"></path>
        </g>
    </g>
</svg>