<?xml version="1.0" encoding="UTF-8"?>
<svg width="94px" height="94px" viewBox="0 0 94 94" version="1.1" xmlns="http://www.w3.org/2000/svg" xmlns:xlink="http://www.w3.org/1999/xlink">
    <!-- Generator: Sketch 50.2 (55047) - http://www.bohemiancoding.com/sketch -->
    <title>security-icon</title>
    <desc>Created with Sketch.</desc>
    <defs></defs>
    <g id="Page-Designs" stroke="none" stroke-width="1" fill="none" fill-rule="evenodd">
        <g id="GoHarbor-Homepage-UI-v2.0" transform="translate(-672.000000, -2065.000000)">
            <g id="Group" transform="translate(620.000000, 2065.000000)">
                <g id="security-icon" transform="translate(52.000000, 0.000000)">
                    <ellipse id="Oval" fill="#FFFFFF" cx="46.7368421" cy="46.8034188" rx="46.7368421" ry="46.8034188"></ellipse>
                    <g transform="translate(17.000000, 17.000000)" fill="#2B0076">
                        <path d="M52.8449399,3.97021587 L26.5065792,3.97021587 C25.8627905,3.97021587 25.3408233,4.49347509 25.3408233,5.13885733 C25.3408233,5.78423957 25.8627905,6.30749878 26.5065792,6.30749878 L52.8449399,6.30749878 C53.4893115,6.30749878 54.0106958,5.78423957 54.0106958,5.13885733 C54.0106958,4.49347509 53.4893115,3.97021587 52.8449399,3.97021587" id="Fill-3"></path>
                        <path d="M13.5672131,4.31243792 C13.3503825,4.09507061 13.0499089,3.97017205 12.7430237,3.97017205 C12.436867,3.97017205 12.1356648,4.09507061 11.9188342,4.31243792 C11.7020036,4.52995131 11.5772678,4.83175296 11.5772678,5.1388135 C11.5772678,5.44631229 11.7020036,5.7476757 11.9188342,5.96504301 C12.1356648,6.18241032 12.436867,6.30745496 12.7430237,6.30745496 C13.0499089,6.30745496 13.3503825,6.18241032 13.5672131,5.96504301 C13.7841894,5.7476757 13.9087796,5.44631229 13.9087796,5.1388135 C13.9087796,4.83175296 13.7841894,4.52995131 13.5672131,4.31243792" id="Fill-5"></path>
                        <path d="M8.90418944,4.31243792 C8.68735883,4.09507061 8.38688525,3.97017205 8.08,3.97017205 C7.77384335,3.97017205 7.47264117,4.09507061 7.25581056,4.31243792 C7.03897996,4.52995131 6.91424408,4.83175296 6.91424408,5.1388135 C6.91424408,5.44631229 7.03897996,5.7476757 7.25581056,5.96504301 C7.47264117,6.18241032 7.77384335,6.30745496 8.08,6.30745496 C8.38688525,6.30745496 8.68735883,6.18241032 8.90418944,5.96504301 C9.12116576,5.7476757 9.24575592,5.44631229 9.24575592,5.1388135 C9.24575592,4.83175296 9.12116576,4.52995131 8.90418944,4.31243792" id="Fill-7"></path>
                        <path d="M18.2302368,4.31243792 C18.0134062,4.09507061 17.7129326,3.97017205 17.4060474,3.97017205 C17.0998907,3.97017205 16.7986885,4.09507061 16.5818579,4.31243792 C16.3650273,4.52995131 16.2402914,4.83175296 16.2402914,5.1388135 C16.2402914,5.44631229 16.3650273,5.7476757 16.5818579,5.96504301 C16.7986885,6.18241032 17.0998907,6.30745496 17.4060474,6.30745496 C17.7129326,6.30745496 18.0134062,6.18241032 18.2302368,5.96504301 C18.4472131,5.7476757 18.5718033,5.44631229 18.5718033,5.1388135 C18.5718033,4.83175296 18.4472131,4.52995131 18.2302368,4.31243792" id="Fill-9"></path>
                        <path d="M30.2054936,12.9495017 L30.1616321,12.9495017 C29.5178434,12.9495017 28.9958761,13.4727609 28.9958761,14.1181432 C28.9958761,14.7635254 29.5178434,15.2867846 30.1616321,15.2867846 L30.2003934,15.2867846 C30.8418506,15.2867846 31.363235,14.7670313 31.3661494,14.123402 C31.368918,13.4780198 30.8492823,12.9524233 30.2054936,12.9495017" id="Fill-11"></path>
                        <path d="M16.0462222,45.8079159 L8.08002914,45.8079159 C7.43624044,45.8079159 6.91427322,46.3311751 6.91427322,46.9765574 C6.91427322,47.6219396 7.43624044,48.1451988 8.08002914,48.1451988 L16.0462222,48.1451988 C16.6900109,48.1451988 17.2119781,47.6219396 17.2119781,46.9765574 C17.2119781,46.3311751 16.6900109,45.8079159 16.0462222,45.8079159" id="Fill-13"></path>
                        <path d="M13.2177778,41.1333501 L8.08,41.1333501 C7.43621129,41.1333501 6.91424408,41.6566093 6.91424408,42.3019916 C6.91424408,42.9473738 7.43621129,43.470633 8.08,43.470633 L13.2177778,43.470633 C13.8615665,43.470633 14.3835337,42.9473738 14.3835337,42.3019916 C14.3835337,41.6566093 13.8615665,41.1333501 13.2177778,41.1333501" id="Fill-15"></path>
                        <path d="M21.3013042,46.1502987 C21.0833078,45.9327853 20.7832714,45.8078867 20.475949,45.8078867 C20.1690638,45.8078867 19.8685902,45.9327853 19.6516138,46.1502987 C19.4347832,46.367666 19.3101931,46.6690294 19.3101931,46.9765282 C19.3101931,47.2835887 19.4347832,47.5853904 19.6516138,47.8027577 C19.8685902,48.0196867 20.1690638,48.1451696 20.475949,48.1451696 C20.7832714,48.1451696 21.0833078,48.0196867 21.3013042,47.8027577 C21.5175519,47.5853904 21.6417049,47.2835887 21.6417049,46.9765282 C21.6417049,46.6690294 21.5175519,46.367666 21.3013042,46.1502987" id="Fill-17"></path>
                        <path d="M52.8449399,13.5532219 L43.7374718,13.5532219 C43.0936831,13.5532219 42.5717158,14.0764811 42.5717158,14.7218633 C42.5717158,15.3672456 43.0936831,15.8905048 43.7374718,15.8905048 L52.8449399,15.8905048 C53.4893115,15.8905048 54.0106958,15.3672456 54.0106958,14.7218633 C54.0106958,14.0764811 53.4893115,13.5532219 52.8449399,13.5532219" id="Fill-19"></path>
                        <path d="M52.8449399,18.2277877 L48.3276357,18.2277877 C47.683847,18.2277877 47.1618798,18.7510469 47.1618798,19.3964292 C47.1618798,20.0418114 47.683847,20.5650706 48.3276357,20.5650706 L52.8449399,20.5650706 C53.4893115,20.5650706 54.0106958,20.0418114 54.0106958,19.3964292 C54.0106958,18.7510469 53.4893115,18.2277877 52.8449399,18.2277877" id="Fill-21"></path>
                        <path d="M34.9294135,31.8749489 C34.9294135,34.4211264 32.8631111,36.4928356 30.3227832,36.4928356 L30.0393588,36.4928356 C27.4994681,36.4928356 25.4331658,34.4211264 25.4331658,31.8749489 L25.4331658,30.2892485 C25.4331658,27.7429248 27.4994681,25.671654 30.0393588,25.671654 L30.3227832,25.671654 C32.8631111,25.671654 34.9294135,27.7429248 34.9294135,30.2892485 L34.9294135,31.8749489 Z M29.1456612,23.3147963 C29.1456612,22.8356533 29.5344408,22.4453271 30.0125464,22.4453271 L30.3500328,22.4453271 C30.8281384,22.4453271 31.216918,22.8356533 31.216918,23.3147963 L31.216918,23.334371 L29.1456612,23.334371 L29.1456612,23.3147963 Z M39.0175738,32.2508132 C39.6613625,32.2508132 40.1833297,31.727554 40.1833297,31.0821717 C40.1833297,30.4362052 39.6613625,29.9135303 39.0175738,29.9135303 L37.250725,29.9135303 C37.2330929,29.5844116 37.192,29.2612823 37.1300692,28.9458951 L38.9145501,27.145603 C39.3681749,26.6873495 39.3658434,25.9478916 38.9093042,25.4925596 C38.4529107,25.037666 37.7145501,25.0398572 37.2609253,25.4982568 L36.1879927,26.5799805 C35.5385209,25.5511378 34.6277741,24.7044571 33.5490128,24.1344522 L33.5490128,23.3147963 C33.5484299,21.5464957 32.1135301,20.1080441 30.3500328,20.1080441 L30.0125464,20.1080441 C28.2490492,20.1080441 26.8141494,21.5464957 26.8141494,23.3147963 L26.8141494,24.1344522 C25.7269362,24.7095699 24.8099235,25.5650154 24.159286,26.604522 L23.0624554,25.4982568 C22.6086849,25.0404415 21.8704699,25.0382503 21.4139308,25.4929979 C20.9573916,25.9478916 20.954623,26.6879338 21.4088306,27.145603 L23.2269727,28.980224 C23.1688306,29.2820256 23.1300692,29.5912774 23.1124372,29.905788 L21.3058069,29.905788 C20.6620182,29.905788 20.140051,30.4290472 20.140051,31.0744295 C20.140051,31.7198117 20.6620182,32.2430709 21.3058069,32.2430709 L23.1114171,32.2430709 C23.1278834,32.5606492 23.1676648,32.8722383 23.2258069,33.1776919 L21.4088306,35.0111443 C20.9552058,35.4688135 20.9573916,36.2088557 21.4139308,36.6634572 C21.6416903,36.8901737 21.9388124,37.0030937 22.2353515,37.0030937 C22.5352423,37.0030937 22.8346958,36.8878364 23.0624554,36.6583444 L24.1563716,35.5548547 C25.3836211,37.5196332 27.5615446,38.8301185 30.039796,38.8301185 L30.3233661,38.8301185 C32.7914171,38.8301185 34.9607432,37.5304431 36.1907614,35.5788119 L37.2609253,36.6577601 C37.4885392,36.8878364 37.7879927,37.0030937 38.0874463,37.0030937 C38.3845683,37.0030937 38.6816903,36.8901737 38.9093042,36.6634572 C39.3658434,36.2088557 39.3681749,35.4688135 38.9145501,35.0111443 L37.1309435,33.2112904 C37.192,32.8980945 37.2330929,32.5774485 37.250725,32.2508132 L39.0175738,32.2508132 Z" id="Fill-23"></path>
                        <path d="M2.46166391,8.43785249 C2.42152729,8.43785249 2.38270903,8.44019629 2.34374428,8.443712 L2.34374428,5.85951805 C2.34374428,3.92133597 3.92079121,2.34380722 5.85936069,2.34380722 L54.1406393,2.34380722 C56.0787693,2.34380722 57.6562557,3.92133597 57.6562557,5.85951805 L57.6562557,8.43785249 L2.46166391,8.43785249 Z M45.4922229,49.3887058 L47.4401674,47.4414414 C47.897344,46.9836666 47.897344,46.2415586 47.4401674,45.7837838 C46.9824048,45.3265949 46.2403168,45.3265949 45.7825542,45.7837838 L43.8347563,47.7316341 L42.2257758,46.121878 L46.1200534,42.2274958 L56.8500077,52.9577382 C57.9235891,54.0312019 57.9235891,55.7780708 56.8500077,56.8521204 C55.7759869,57.9257306 54.029165,57.9257306 52.9551442,56.8521204 L45.4922229,49.3887058 Z M58.8281279,48.0470226 C59.4752942,48.0470226 60,47.5223028 60,46.875119 L60,5.85951805 C60,2.62872629 57.3713443,0 54.1406393,0 L5.85936069,0 C2.62865569,0 0,2.62872629 0,5.85951805 L0,49.4550648 C0,52.6860031 2.62865569,55.3145829 5.85936069,55.3145829 L48.103447,55.3145829 L51.2979705,58.5093386 C52.2918645,59.5034058 53.5970371,60 54.9023562,60 C56.2081147,60 57.5132873,59.5034058 58.5071814,58.5093386 C60.4943836,56.5214971 60.4943836,53.2877756 58.5071814,51.3000806 L46.9487135,39.7411558 C46.7289875,39.5214239 46.4308925,39.3979345 46.1200534,39.3979345 C45.8093608,39.3979345 45.5112658,39.5214239 45.2915398,39.7411558 L43.3443278,41.6884201 L42.1405221,40.4845821 C44.6506722,37.5920311 46.1716158,33.8193804 46.1716158,29.6980883 C46.1716158,26.1154325 45.0414916,22.7084157 42.9026785,19.8461877 C40.835789,17.0796162 37.8907278,14.9921629 34.6102182,13.9683586 C33.9927881,13.7755805 33.3353678,14.1205596 33.1425949,14.7380063 C32.9496754,15.356039 33.2942058,16.0134769 33.9122219,16.2058156 C39.8430668,18.0569838 43.8278715,23.4786494 43.8278715,29.6980883 C43.8278715,37.4900754 37.4890686,43.829195 29.6972908,43.829195 C21.9056594,43.829195 15.5662706,37.4900754 15.5662706,29.6980883 C15.5662706,23.5329964 19.5063977,18.1249542 25.3708853,16.2412657 C25.9871436,16.0432139 26.3265471,15.3835787 26.1285007,14.7667179 C25.9306008,14.1504431 25.2702508,13.8122024 24.6539925,14.0096682 C21.3586881,15.0681901 18.5221716,17.1048121 16.451913,19.8995093 C14.3394669,22.7507508 13.2225263,26.1394565 13.2225263,29.6980883 C13.2225263,38.7826851 20.6130844,46.1730023 29.6972908,46.1730023 C33.8183256,46.1730023 37.590875,44.6518714 40.4827625,42.1416538 L41.6873006,43.3454918 L39.7395026,45.2933421 C39.28174,45.7512635 39.28174,46.4927855 39.7395026,46.9505603 L45.7597027,52.9707757 L5.85936069,52.9707757 C3.92079121,52.9707757 2.34374428,51.3938329 2.34374428,49.4550648 L2.34374428,10.7759467 C2.38270903,10.7794624 2.42152729,10.7816597 2.46166391,10.7816597 L57.6562557,10.7816597 L57.6562557,46.875119 C57.6562557,47.5223028 58.180522,48.0470226 58.8281279,48.0470226 Z" id="Fill-1"></path>
                    </g>
                </g>
            </g>
        </g>
    </g>
</svg>