<?xml version="1.0" encoding="UTF-8"?>
<svg width="48px" height="39px" viewBox="0 0 48 39" version="1.1" xmlns="http://www.w3.org/2000/svg" xmlns:xlink="http://www.w3.org/1999/xlink">
    <!-- Generator: Sketch 50.2 (55047) - http://www.bohemiancoding.com/sketch -->
    <title>Twitter icon</title>
    <desc>Created with Sketch.</desc>
    <defs></defs>
    <g id="Page-Designs" stroke="none" stroke-width="1" fill="none" fill-rule="evenodd">
        <g id="GoHarbor-Homepage-UI-v2.0" transform="translate(-481.000000, -2727.000000)" fill="#5400F4">
            <g id="Group-5" transform="translate(445.000000, 2727.000000)">
                <g id="Twitter-icon" transform="translate(36.000000, 0.000000)">
                    <path d="M47.3333333,4.80555556 C45.5833333,5.58333333 43.8333333,6.16666667 41.8888889,6.36111111 C43.8333333,5.19444444 45.3888889,3.25 46.1666667,1.11111111 C44.2222222,2.27777778 42.2777778,3.05555556 40.1388889,3.44444444 C38.3888889,1.5 35.8611111,0.333333333 33.1388889,0.333333333 C27.8888889,0.333333333 23.6111111,4.61111111 23.6111111,9.86111111 C23.6111111,10.6388889 23.6111111,11.4166667 23.8055556,12 C15.6388889,11.6111111 8.63888889,7.72222222 3.97222222,1.88888889 C3,3.44444444 2.61111111,5 2.61111111,6.75 C2.61111111,10.0555556 4.36111111,12.9722222 6.88888889,14.7222222 C5.33333333,14.7222222 3.77777778,14.3333333 2.61111111,13.5555556 C2.61111111,13.5555556 2.61111111,13.5555556 2.61111111,13.75 C2.61111111,18.4166667 5.91666667,22.3055556 10.1944444,23.0833333 C9.41666667,23.2777778 8.63888889,23.4722222 7.66666667,23.4722222 C7.08333333,23.4722222 6.5,23.4722222 5.91666667,23.2777778 C7.08333333,27.1666667 10.5833333,29.8888889 14.8611111,29.8888889 C11.5555556,32.4166667 7.47222222,33.9722222 3,33.9722222 C2.22222222,33.9722222 1.44444444,33.9722222 0.666666667,33.7777778 C4.94444444,36.5 10,38.0555556 15.25,38.0555556 C32.9444444,38.0555556 42.4722222,23.4722222 42.4722222,10.8333333 L42.4722222,9.66666667 C44.4166667,8.30555556 45.9722222,6.55555556 47.3333333,4.80555556 Z" id="twitter-icon"></path>
                </g>
            </g>
        </g>
    </g>
</svg>