<?xml version="1.0" encoding="UTF-8"?> <svg xmlns="http://www.w3.org/2000/svg" version="1.2" viewBox="0 0 736 736" width="736" height="736"><title>Liechtensteinische_Post_Logo_RGB-svg</title><style> .s0 { fill: #0061af } .s1 { fill: #c83640 } .s2 { fill: #fed300 } .s3 { fill: #ffffff } </style><g id="Layer"><path id="Layer" class="s0" d="m0 368v-368h736v368h-736z"></path><path id="Layer" class="s1" d="m0 736v-368h736v368h-736z"></path><path id="Layer" class="s2" d="m533.2 320.4h-207.3l36.3-40.7h328.5l-169 187.2c-17.8 18.9-61.8 50.8-116.1 50.8-5.7 0-9.3 0-17.4 0-12.3 0-17.4 0-34.1 0z"></path><path id="Layer" class="s2" d="m103.7 639.6c-8 0-49.3 0-61.6 0l248.8-271.7h120.4l-211.6 230.8c-12.4 11.4-43.4 41-96 40.9z"></path><path id="Layer" fill-rule="evenodd" class="s3" d="m371.9 138.7h26.1c16.8 0 21.9 1.7 27.5 4.8 9.3 5.2 14.3 14.3 14.3 25.7 0 13.1-6.3 24-17.1 29.1-4.5 2.2-8.8 3.3-19.8 3.3h-11v36.5h-20zm32.6 16.1h-12.7v30.5h10.4c8.2 0 10.6-1 13.3-5.1 1.7-2.8 2.4-5.9 2.4-10.6 0-9.2-5-14.8-13.4-14.8z"></path><path id="Layer" fill-rule="evenodd" class="s3" d="m498.5 137.6c26.3 0 42.6 19.2 42.6 50.3 0 22.4-7.8 39.1-22.1 47.1-6 3.3-11.5 4.6-19.8 4.6-14.9 0-24.6-4.2-32.2-14-7.6-9.7-11.4-22.3-11.4-36.8 0-21.3 8.3-38.5 22.4-46.3 5.8-3.1 13.1-4.8 20.5-4.9zm-0.2 15.5c-6.7 0-12.7 3.4-15.4 8.7-3.4 6.4-5 15.1-5 27.1 0 17.1 3 27.7 8.8 32.1 3.1 2.3 7.1 3.4 11.8 3.4 13.9 0 19.7-10.6 19.7-35.8 0-10.2-0.9-17.4-2.6-23-1.5-5-6.8-12.5-17.3-12.5z"></path><path id="Layer" class="s3" d="m629.6 145.8l-9.4 14.3c-9-5.5-15.7-7.6-23.1-7.6-8.1 0-13.8 4.7-13.8 11.4 0 5.2 2.7 7.7 11 10l12 3.3c16.3 4.4 25.1 14.8 25.1 29.5 0 20.1-16.2 33.4-40.9 33.4-11.3 0-23.8-3.3-33.8-9l7.4-15.5c9.2 4.9 17.2 8 27.2 8 11.4 0 17.4-4.7 17.4-13.5 0-6.4-4.2-10.5-13-12.8l-11-3c-9.8-2.7-15.9-6.5-19.5-12.5-2.7-4.4-4.1-9.5-4.1-15.1 0-18.2 14.5-30.7 35.5-30.7 12.1 0 24.3 3.7 33 9.8z"></path><path id="Layer" class="s3" d="m646.9 155.5v-16.5h71.5l-3.3 16.5h-23.7v82.6h-20.2v-82.6h-24.3z"></path></g></svg> 