<?xml version="1.0" encoding="UTF-8"?>
<svg width="94px" height="94px" viewBox="0 0 94 94" version="1.1" xmlns="http://www.w3.org/2000/svg" xmlns:xlink="http://www.w3.org/1999/xlink">
    <!-- Generator: Sketch 50.2 (55047) - http://www.bohemiancoding.com/sketch -->
    <title>extensible-api-icon</title>
    <desc>Created with Sketch.</desc>
    <defs>
        <polygon id="path-1" points="0 0 60 0 60 60 0 60"></polygon>
    </defs>
    <g id="Page-Designs" stroke="none" stroke-width="1" fill="none" fill-rule="evenodd">
        <g id="GoHarbor-Homepage-UI-v2.0" transform="translate(-673.000000, -2319.000000)">
            <g id="extensible-api-icon" transform="translate(673.000000, 2319.000000)">
                <ellipse id="Oval" fill="#FFFFFF" cx="46.7368421" cy="46.8034188" rx="46.7368421" ry="46.8034188"></ellipse>
                <g id="api-icon" transform="translate(17.000000, 19.000000)">
                    <mask id="mask-2" fill="white">
                        <use xlink:href="#path-1"></use>
                    </mask>
                    <g id="Clip-2"></g>
                    <path d="M51.3279751,32.5165411 L48.1727403,33.3028961 C47.8128159,33.3926941 47.5158819,33.648611 47.3739337,33.9912497 L45.1067175,39.4611632 C44.9647693,39.8043878 44.9934812,40.1952215 45.1850893,40.5135429 L46.859463,43.2990385 L43.2984526,46.859463 L40.5135429,45.1856753 C40.194782,44.9940672 39.8045343,44.9649158 39.4611632,45.1073035 L33.9912497,47.3737872 C33.6480251,47.5164678 33.3926941,47.8126694 33.3028961,48.1731797 L32.5166876,51.3279751 L27.4827265,51.3279751 L26.6965179,48.1731797 C26.60672,47.8126694 26.3515355,47.5164678 26.0081643,47.3737872 L20.5382508,45.1073035 C20.1948797,44.9649158 19.804632,44.9940672 19.4860176,45.1856753 L16.7009615,46.859463 L13.1400976,43.2990385 L14.8143247,40.5135429 C15.0060793,40.1952215 15.0346447,39.8043878 14.8926965,39.4611632 L12.6256269,33.9912497 C12.4836786,33.648611 12.1865982,33.3926941 11.8260878,33.3028961 L8.67143897,32.5165411 L8.67143897,27.4827265 L11.8266738,26.6971039 C12.1871841,26.60672 12.4836786,26.3516819 12.6260663,26.0081643 L14.8926965,20.5382508 C15.0346447,20.1948797 15.0060793,19.804632 14.8143247,19.4858711 L13.1400976,16.7009615 L16.7009615,13.140537 L19.4860176,14.8143247 C19.804632,15.0059328 20.1948797,15.0353772 20.5382508,14.8926965 L26.0081643,12.6260663 C26.3515355,12.4836786 26.60672,12.1871841 26.6965179,11.8266738 L27.4827265,8.67143897 L32.5166876,8.67143897 L33.3028961,11.8266738 C33.3926941,12.1871841 33.6480251,12.4836786 33.9912497,12.6260663 L39.4611632,14.8926965 C39.8045343,15.0353772 40.194782,15.0059328 40.5135429,14.8143247 L43.2984526,13.140537 L46.859463,16.7009615 L45.1850893,19.4858711 C44.9934812,19.804632 44.9647693,20.1948797 45.1067175,20.5382508 L47.3739337,26.0081643 C47.5158819,26.3516819 47.8128159,26.60672 48.1727403,26.6971039 L51.3279751,27.4827265 L51.3279751,32.5165411 Z M58.8280849,28.8280849 L53.6718052,28.8280849 L53.6718052,26.5671678 C53.6718052,26.0286729 53.3049958,25.5600533 52.7832006,25.4296778 L49.3125742,24.5655369 L47.4980102,20.1869693 L49.3401142,17.1237298 C49.6169791,16.6625812 49.5443204,16.0714966 49.1638874,15.6916496 L44.3084969,10.8356731 C43.9279175,10.4550937 43.3368328,10.3824349 42.8762702,10.6598858 L39.8125913,12.5014039 L35.4338771,10.6868399 L34.5698828,7.2167994 C34.4393607,6.69456476 33.9707412,6.3283413 33.4322462,6.3283413 L31.1719151,6.3283413 L31.1719151,1.17191506 C31.1719151,0.524724966 30.6471901,0 30,0 C29.3528099,0 28.8280849,0.524724966 28.8280849,1.17191506 L28.8280849,6.3283413 L26.5671678,6.3283413 C26.0288193,6.3283413 25.5600533,6.69456476 25.4296778,7.2167994 L24.5655369,10.6868399 L20.1869693,12.5014039 L17.1238763,10.6598858 C16.6619953,10.3824349 16.0714966,10.4550937 15.6909172,10.8356731 L10.8356731,15.6916496 C10.4550937,16.0720825 10.3824349,16.6625812 10.6600323,17.1237298 L12.5014039,20.1869693 L10.6868399,24.5655369 L7.21694589,25.4296778 C6.69456476,25.5600533 6.3283413,26.0286729 6.3283413,26.5671678 L6.3283413,28.8280849 L1.17191506,28.8280849 C0.524724966,28.8280849 0,29.3528099 0,30 C0,30.6471901 0.524724966,31.1719151 1.17191506,31.1719151 L6.3283413,31.1719151 L6.3283413,33.4326857 C6.3283413,33.9707412 6.69456476,34.4398002 7.21694589,34.5698828 L10.6868399,35.4343166 L12.5014039,39.8125913 L10.6600323,42.8762702 C10.3824349,43.3374188 10.4550937,43.9279175 10.8356731,44.3084969 L15.6909172,49.1644734 C16.0714966,49.5449063 16.6625812,49.6175651 17.1238763,49.3401142 L20.1875552,47.4985961 L24.5655369,49.3131601 L25.4302637,52.7832006 C25.5600533,53.3055817 26.0294053,53.6718052 26.5671678,53.6718052 L28.8280849,53.6718052 L28.8280849,58.8280849 C28.8280849,59.475275 29.3528099,60 30,60 C30.6471901,60 31.1719151,59.475275 31.1719151,58.8280849 L31.1719151,53.6718052 L33.4328322,53.6718052 C33.9707412,53.6718052 34.4399467,53.3055817 34.5698828,52.7832006 L35.4344631,49.3131601 L39.8125913,47.4985961 L42.8762702,49.3401142 C43.3374188,49.6175651 43.9279175,49.5449063 44.3090828,49.1644734 L49.1643269,44.3084969 C49.5449063,43.9279175 49.6175651,43.3374188 49.3401142,42.8762702 L47.4985961,39.8125913 L49.3131601,35.4343166 L52.7832006,34.5698828 C53.3055817,34.4398002 53.6718052,33.9707412 53.6718052,33.4326857 L53.6718052,31.1719151 L58.8280849,31.1719151 C59.475275,31.1719151 60,30.6471901 60,30 C60,29.3528099 59.475275,28.8280849 58.8280849,28.8280849 Z" id="Fill-1" fill="#2B0076" mask="url(#mask-2)"></path>
                    <path d="M35.1056165,15.974912 C34.5057219,15.7540928 33.8404106,16.0633849 33.6198463,16.6654079 C33.3994266,17.2681572 33.707551,17.9361353 34.3078797,18.1573904 C39.2099373,19.9631686 42.5036407,24.6998861 42.5036407,29.944052 C42.5036407,36.8648459 36.8943009,42.4955907 30.0000724,42.4955907 C23.1051202,42.4955907 17.4959251,36.8648459 17.4959251,29.944052 C17.4959251,24.9820117 20.4169558,20.4755563 24.9373675,18.463777 C25.5220657,18.2032975 25.7854693,17.5167241 25.5264075,16.9305362 C25.2670562,16.3437672 24.5827857,16.0786389 23.9989558,16.3391184 C18.641731,18.7230943 15.1807229,24.0631422 15.1807229,29.944052 C15.1807229,38.146469 21.8286256,44.8192771 30.0000724,44.8192771 C38.1715191,44.8192771 44.8192771,38.146469 44.8192771,29.944052 C44.8192771,23.7290079 40.915693,18.1154056 35.1056165,15.974912" id="Fill-4" fill="#2B0076" mask="url(#mask-2)"></path>
                    <path d="M30.0294212,15.1812649 L29.9736142,15.1807229 C29.3893605,15.1807229 28.9156627,15.6661136 28.9156627,16.2647892 C28.9156627,16.8640069 29.3893605,17.3488556 29.9736142,17.3488556 L30.0232057,17.3493976 L30.0263796,17.3493976 C30.6095754,17.3493976 31.0827442,16.866175 31.0843311,16.2685835 C31.0863148,15.6693658 30.6136749,15.182891 30.0294212,15.1812649" id="Fill-6" fill="#2B0076" mask="url(#mask-2)"></path>
                    <path d="M37.9518072,25.3012048 C37.3529819,25.3012048 36.8674699,25.8386987 36.8674699,26.5016379 L36.8674699,33.4983621 C36.8674699,34.1613013 37.3529819,34.6987952 37.9518072,34.6987952 C38.5506325,34.6987952 39.0361446,34.1613013 39.0361446,33.4983621 L39.0361446,26.5016379 C39.0361446,25.8386987 38.5506325,25.3012048 37.9518072,25.3012048" id="Fill-8" fill="#2B0076" mask="url(#mask-2)"></path>
                    <path d="M33.0941062,28.6955794 C33.0941062,29.046556 32.817415,29.332109 32.4770064,29.332109 L31.2432432,29.332109 L31.2432432,27.702071 L32.4770064,27.702071 C32.817415,27.702071 33.0941062,27.9874739 33.0941062,28.3380004 L33.0941062,28.6955794 Z M32.4770064,25.3012048 L30.0794529,25.3012048 C29.4367497,25.3012048 28.9156627,25.8386987 28.9156627,26.5016379 L28.9156627,33.4983621 C28.9156627,34.1613013 29.4367497,34.6987952 30.0794529,34.6987952 C30.7221561,34.6987952 31.2432432,34.1613013 31.2432432,33.4983621 L31.2432432,31.7329752 L32.4775883,31.7329752 C34.1010757,31.7329752 35.4216867,30.3701836 35.4216867,28.6961796 L35.4216867,28.3386006 C35.4216867,26.6633963 34.1010757,25.3012048 32.4770064,25.3012048 Z" id="Fill-10" fill="#2B0076" mask="url(#mask-2)"></path>
                    <path d="M28.0936813,33.0565976 L24.9728432,26.0145626 C24.7810115,25.5817206 24.3415617,25.3012048 23.8552941,25.3012048 C23.3690265,25.3012048 22.9295767,25.5817206 22.737745,26.0139739 L19.6169069,33.0565976 C19.3521122,33.6544229 19.6377317,34.3465874 20.2545726,34.6031137 C20.8721736,34.8594927 21.5870585,34.5829507 21.8518532,33.9849782 L23.8552941,29.464053 L25.8593431,33.9849782 C26.056951,34.4312131 26.5053692,34.6984832 26.9773482,34.6984832 C27.1371067,34.6984832 27.2997532,34.6680179 27.4558636,34.6031137 C28.0728565,34.3465874 28.359084,33.6544229 28.0936813,33.0565976" id="Fill-12" fill="#2B0076" mask="url(#mask-2)"></path>
                    <path d="M56.0300698,5.60639478 C55.1284963,5.60639478 54.395238,4.87299927 54.395238,3.97125714 C54.395238,3.06951501 55.1284963,2.3361195 56.0300698,2.3361195 C56.9316432,2.3361195 57.6649015,3.06951501 57.6649015,3.97125714 C57.6649015,4.87299927 56.9316432,5.60639478 56.0300698,5.60639478 M56.0300698,0 C53.8403675,0 52.0595556,1.78114511 52.0595556,3.97125714 C52.0595556,4.64143142 52.2265569,5.27276772 52.5208529,5.82657405 L48.0529844,10.2952786 C47.5967964,10.751552 47.5967964,11.4912258 48.0529844,11.9474991 C48.2811513,12.1751248 48.5799727,12.2891566 48.8787941,12.2891566 C49.1776154,12.2891566 49.4762908,12.1751248 49.7044578,11.9469151 L54.1717424,7.47937859 C54.726467,7.77431368 55.358853,7.94251428 56.0294858,7.94251428 C58.2191881,7.94251428 60,6.16078514 60,3.97125714 C60,1.78114511 58.2191881,0 56.0300698,0" id="Fill-14" fill="#2B0076" mask="url(#mask-2)"></path>
                    <path d="M3.97122175,57.6639846 C3.06948766,57.6639846 2.33609868,56.9304757 2.33609868,56.0289198 C2.33609868,55.1272178 3.06948766,54.393709 3.97122175,54.393709 C4.87295585,54.393709 5.60634483,55.1272178 5.60634483,56.0289198 C5.60634483,56.9304757 4.87295585,57.6639846 3.97122175,57.6639846 M11.9473927,48.0530331 C11.4911234,47.5967801 10.7514562,47.5967801 10.2951869,48.0530331 L5.8282742,52.5196406 C5.27388878,52.2254487 4.64197409,52.0576936 3.97122175,52.0576936 C1.78112924,52.0576936 0,53.8389053 0,56.0289198 C0,58.2183502 1.78112924,60 3.97122175,60 C6.16131427,60 7.94244351,58.2183502 7.94244351,56.0289198 C7.94244351,55.3581914 7.77482843,54.7262992 7.47989597,54.1719335 L11.9473927,49.704596 C12.4030779,49.248343 12.4030779,48.5092861 11.9473927,48.0530331" id="Fill-16" fill="#2B0076" mask="url(#mask-2)"></path>
                    <path d="M49.5628916,48.0285542 C49.3601205,47.8267319 49.080497,47.7108434 48.7951807,47.7108434 C48.5097289,47.7108434 48.230241,47.8267319 48.0285542,48.0285542 C47.8267319,48.230241 47.7108434,48.5097289 47.7108434,48.7951807 C47.7108434,49.080497 47.8267319,49.3601205 48.0285542,49.5619428 C48.230241,49.763494 48.5097289,49.8795181 48.7951807,49.8795181 C49.0815813,49.8795181 49.3601205,49.763494 49.5628916,49.5619428 C49.7644428,49.3601205 49.8795181,49.0817169 49.8795181,48.7951807 C49.8795181,48.5097289 49.7644428,48.230241 49.5628916,48.0285542" id="Fill-18" fill="#2B0076" mask="url(#mask-2)"></path>
                    <path d="M55.8977674,57.5861768 C54.966285,57.5861768 54.2087015,56.8282363 54.2087015,55.8966514 C54.2087015,54.9649156 54.966285,54.2069751 55.8977674,54.2069751 C56.8292497,54.2069751 57.5868333,54.9649156 57.5868333,55.8966514 C57.5868333,56.8282363 56.8292497,57.5861768 55.8977674,57.5861768 M55.8977674,51.7931519 C55.2042836,51.7931519 54.5509187,51.9664946 53.9777916,52.2716923 L51.939269,50.232766 C51.4679474,49.7617688 50.7043309,49.7617688 50.2330093,50.232766 C49.7616877,50.7042159 49.7616877,51.4684926 50.2330093,51.939339 L52.2721352,53.9794723 C51.9680762,54.5516992 51.7955348,55.2041858 51.7955348,55.8966514 C51.7955348,58.1590072 53.6354236,60 55.8977674,60 C58.1595079,60 60,58.1590072 60,55.8966514 C60,53.6336921 58.1595079,51.7931519 55.8977674,51.7931519" id="Fill-20" fill="#2B0076" mask="url(#mask-2)"></path>
                    <path d="M3.97122175,5.60639478 C3.06948766,5.60639478 2.33609868,4.87299927 2.33609868,3.97125714 C2.33609868,3.06951501 3.06948766,2.3361195 3.97122175,2.3361195 C4.87295585,2.3361195 5.60634483,3.06951501 5.60634483,3.97125714 C5.60634483,4.87299927 4.87295585,5.60639478 3.97122175,5.60639478 M11.9473927,10.2952786 L7.47989597,5.82832614 C7.77482843,5.27393578 7.94244351,4.64201545 7.94244351,3.97125714 C7.94244351,1.78172914 6.16131427,0 3.97122175,0 C1.78112924,0 0,1.78114511 0,3.97125714 C0,6.16136917 1.78112924,7.94251428 3.97122175,7.94251428 C4.64197409,7.94251428 5.27388878,7.77489771 5.8282742,7.47996262 L10.2951869,11.9474991 C10.5232485,12.1755628 10.8227072,12.2891566 11.1215818,12.2891566 C11.4204564,12.2891566 11.7193311,12.1755628 11.9473927,11.9474991 C12.4030779,11.4912258 12.4030779,10.751552 11.9473927,10.2952786" id="Fill-22" fill="#2B0076" mask="url(#mask-2)"></path>
                </g>
            </g>
        </g>
    </g>
</svg>