
<svg width="18px" height="19px" viewBox="0 0 18 19" version="1.1" xmlns="http://www.w3.org/2000/svg" xmlns:xlink="http://www.w3.org/1999/xlink">
    <!-- Generator: Sketch 50.2 (55047) - http://www.bohemiancoding.com/sketch -->
    <desc>Created with Sketch.</desc>
    <defs></defs>
    <g id="Symbols" stroke="none" stroke-width="1" fill="none" fill-rule="evenodd">
        <g id="content/blog-article" transform="translate(-400.000000, -2.000000)">
            <rect id="Rectangle-2" stroke="#0C0033" stroke-width="2" x="401" y="5" width="15" height="15"></rect>
            <rect id="Rectangle" fill="#FFFFFF" x="407" y="2" width="11" height="10"></rect>
            <path d="M414.268745,4.0892291 L409.638258,4.0892291 L409.059918,4.0892291 L409.059918,3 L409.638258,3 L415.42166,3 L416,3 L416,4.0892291 L415.42166,4.0892291 L414.268745,4.0892291 L414.634961,3.68803765 L414.84332,3.45977878 L414.84332,3 L416,3 L416,3.54461455 L416,8.99076002 L416,9.53537457 L414.84332,9.53537457 L414.84332,8.99076002 L414.84332,4.97336657 L406.036224,14.6216031 L405.690816,15 L405,14.2432061 L405.345408,13.8648092 L414.268745,4.0892291 Z" id="Combined-Shape" stroke="#0C0033" fill="#0C0033" stroke-linecap="square"></path>
        </g>
    </g>
</svg>