<?xml version="1.0" encoding="UTF-8"?>
<svg width="94px" height="94px" viewBox="0 0 94 94" version="1.1" xmlns="http://www.w3.org/2000/svg" xmlns:xlink="http://www.w3.org/1999/xlink">
    <!-- Generator: Sketch 50.2 (55047) - http://www.bohemiancoding.com/sketch -->
    <title>multi-content-icon</title>
    <desc>Created with Sketch.</desc>
    <defs>
        <polygon id="path-1" points="0 0 51 0 51 60 0 60"></polygon>
    </defs>
    <g id="Page-Designs" stroke="none" stroke-width="1" fill="none" fill-rule="evenodd">
        <g id="GoHarbor-Homepage-UI-v2.0" transform="translate(-387.000000, -2065.000000)">
            <g id="multi-content-icon" transform="translate(387.000000, 2065.000000)">
                <ellipse id="Oval" fill="#FFFFFF" cx="46.7368421" cy="46.8034188" rx="46.7368421" ry="46.8034188"></ellipse>
                <g id="validation-icon" transform="translate(22.000000, 17.000000)">
                    <path d="M20.1751652,11.7857143 L20.1998348,11.7857143 C20.7797171,11.7857143 21.25,11.3059093 21.25,10.7142857 C21.25,10.1225627 20.7797171,9.64285714 20.1998348,9.64285714 L20.1751652,9.64285714 C19.5951854,9.64285714 19.125,10.1225627 19.125,10.7142857 C19.125,11.3060088 19.5950879,11.7857143 20.1751652,11.7857143" id="Fill-1" fill="#2B0076"></path>
                    <path d="M19.1373348,52.5 L19.1126652,52.5 C18.5325879,52.5 18.0625,52.979606 18.0625,53.5714286 C18.0625,54.1630521 18.5325879,54.6428571 19.1126652,54.6428571 L19.1373348,54.6428571 C19.7173146,54.6428571 20.1875,54.1630521 20.1875,53.5714286 C20.1875,52.9795066 19.7173146,52.5 19.1373348,52.5" id="Fill-3" fill="#2B0076"></path>
                    <path d="M15.7516302,52.5 L6.5608698,52.5 C5.87142657,52.5 5.3125,52.9797055 5.3125,53.5715281 C5.3125,54.1631516 5.87142657,54.6428571 6.5608698,54.6428571 L15.7516302,54.6428571 C16.4409575,54.6428571 17,54.1631516 17,53.5715281 C17,52.9797055 16.4410734,52.5 15.7516302,52.5" id="Fill-5" fill="#2B0076"></path>
                    <mask id="mask-2" fill="white">
                        <use xlink:href="#path-1"></use>
                    </mask>
                    <g id="Clip-8"></g>
                    <path d="M48.4692666,52.4778516 L45.989519,52.4778516 L45.989519,17.7186328 C45.9901064,17.701875 45.9919861,17.6854688 45.9919861,17.6687109 C45.9919861,17.2961719 45.8301,16.96125 45.5728209,16.7301563 L34.1824058,5.36765625 C34.1424629,5.3278125 34.0991131,5.29195313 34.0545886,5.25808594 C34.0434281,5.24964844 34.0322676,5.24132813 34.0209896,5.23324219 C33.9762301,5.20160156 33.9301783,5.17183594 33.8820119,5.14617188 C33.8793099,5.14464844 33.8762554,5.14359375 33.8734359,5.14207031 C33.8275016,5.11828125 33.7800401,5.09789063 33.7318737,5.07996094 C33.7182461,5.07492188 33.7050885,5.07011719 33.6915784,5.06554688 C33.640475,5.0484375 33.5886667,5.03320313 33.5354487,5.02265625 C33.5334516,5.0221875 33.5315719,5.02207031 33.5294573,5.02171875 C33.4784714,5.01175781 33.4265457,5.00589844 33.3742675,5.00238281 C33.3589952,5.00144531 33.3439579,5.000625 33.3288031,5.00015625 C33.315058,4.9996875 33.3014305,4.99804688 33.287568,4.99804688 L7.54062702,4.99804688 L7.54062702,2.52421875 L48.4692666,2.52421875 L48.4692666,52.4778516 Z M41.6695798,16.4064844 L34.5528172,16.4064844 L34.5528172,9.30703125 L38.1111398,12.8565234 L41.6695798,16.4064844 Z M43.459138,57.4757813 L2.53049848,57.4757813 L2.53049848,7.52214844 L32.0223187,7.52214844 L32.0223187,9.99597656 L23.9725375,9.99597656 C23.2737722,9.99597656 22.7072883,10.5610547 22.7072883,11.2580859 C22.7072883,11.955 23.2737722,12.5201953 23.9725375,12.5201953 L32.0223187,12.5201953 L32.0223187,17.6685938 C32.0223187,18.3655078 32.5889201,18.9307031 33.287568,18.9307031 L43.459138,18.9307031 L43.459138,57.4757813 Z M49.7346333,0 L6.27537778,0 C5.57661246,0 5.01012854,0.565195313 5.01012854,1.26210938 L5.01012854,4.99792969 L1.26524924,4.99792969 C0.566483921,4.99792969 0,5.56324219 0,6.26003906 L0,58.7380078 C0,59.4349219 0.566483921,60 1.26524924,60 L44.7242698,60 C45.4230351,60 45.9896365,59.4349219 45.9896365,58.7380078 L45.9896365,55.0020703 L49.7346333,55.0020703 C50.4335161,55.0020703 51,54.4369922 51,53.7400781 L51,1.26210938 C50.999765,0.565195313 50.4335161,0 49.7346333,0 Z" id="Fill-7" fill="#2B0076" mask="url(#mask-2)"></path>
                    <path d="M31.4222261,32.256796 C31.4222261,40.2967088 24.3770288,43.418247 23.3748803,43.6007356 C22.3726122,43.4183615 15.3277739,40.2963654 15.3277739,32.256796 L15.3277739,28.4499528 C18.1427413,27.6411188 20.790285,26.5578651 23.3754787,25.1570311 C25.9087339,26.5240922 28.6602742,27.6494762 31.4219868,28.4488079 L31.4219868,32.256796 L31.4222261,32.256796 Z M33.0513457,26.3318725 C29.9957143,25.5311669 26.7920463,24.2311938 24.0299748,22.6713406 C23.6257166,22.4429437 23.123685,22.4428292 22.7193072,22.6713406 C19.8386389,24.2983963 16.8878417,25.4957911 13.6981756,26.3318725 C13.1382218,26.4786418 12.75,26.9656594 12.75,27.5211389 L12.75,32.256796 C12.75,37.4005909 15.2329922,40.8074248 17.3157953,42.7599604 C19.4981669,44.8053429 22.1600715,46.0714286 23.3748803,46.0714286 C24.5898089,46.0714286 27.2517134,44.8053429 29.4339654,42.7599604 C31.5170078,40.8076538 34,37.4007054 34,32.256796 L34,27.5211389 C34,26.9656594 33.6115388,26.4787562 33.0513457,26.3318725 Z" id="Fill-10" fill="#2B0076" mask="url(#mask-2)"></path>
                    <path d="M20.1911122,33.3521704 C19.7040463,32.8256377 18.9145758,32.8256377 18.4276257,33.3521704 C17.9407914,33.8785778 17.9407914,34.7322218 18.4276257,35.2588796 L21.1257646,38.1765917 C21.3693555,38.4397328 21.6885474,38.5714286 22.0076236,38.5714286 C22.3266998,38.5714286 22.645776,38.4397328 22.8891353,38.1765917 L28.3224611,32.3016087 C28.8091796,31.7752013 28.8091796,30.9214322 28.3224611,30.3948995 C27.8353952,29.8683668 27.0459248,29.8683668 26.5589746,30.3948995 L22.0076236,35.31634 L20.1911122,33.3521704 Z" id="Fill-12" fill="#2B0076" mask="url(#mask-2)"></path>
                </g>
            </g>
        </g>
    </g>
</svg>