<?xml version="1.0" encoding="UTF-8"?>
<svg width="47px" height="48px" viewBox="0 0 47 48" version="1.1" xmlns="http://www.w3.org/2000/svg" xmlns:xlink="http://www.w3.org/1999/xlink">
    <!-- Generator: Sketch 50.2 (55047) - http://www.bohemiancoding.com/sketch -->
    <title>Icon</title>
    <desc>Created with Sketch.</desc>
    <defs></defs>
    <g id="Page-Designs" stroke="none" stroke-width="1" fill="none" fill-rule="evenodd">
        <g id="GoHarbor-Homepage-UI-v2.0" transform="translate(-620.000000, -2722.000000)" fill="#5400F4">
            <g id="Group-3" transform="translate(592.666667, 2722.000000)">
                <g id="Icon" transform="translate(27.000000, 0.000000)">
                    <path d="M45.3749434,17.587517 C50.2328851,33.5215657 46.3465318,40.5170017 30.412483,45.3749434 C14.2841166,50.2328851 7.48299825,46.3465318 2.62505656,30.412483 C-2.23288512,14.4784343 1.65346823,7.48299825 17.587517,2.62505656 C33.5215657,-2.23288512 40.5170017,1.65346823 45.3749434,17.587517 Z M37.2136014,28.080671 C38.5738251,27.497718 39.1567781,26.1374943 38.7681427,24.9715883 C38.3795074,23.6113647 37.0192837,23.0284117 35.6590601,23.417047 L32.5499774,24.3886353 L30.6068007,18.3647876 L33.7158834,17.3931993 C35.0761071,17.004564 35.6590601,15.6443403 35.2704247,14.2841166 C34.8817894,13.1182106 33.5215657,12.3409399 32.3556597,12.9238929 L29.246577,13.8954813 L28.2749887,10.7863986 C27.8863534,9.42617493 26.5261297,8.84322193 25.165906,9.23185726 C23.8056823,9.6204926 23.2227293,10.9807163 23.6113647,12.3409399 L24.582953,15.255705 L18.3647876,17.3931993 L17.3931993,14.2841166 C16.8102463,13.1182106 15.4500226,12.3409399 14.2841166,12.7295753 C12.9238929,13.3125283 12.3409399,14.672752 12.7295753,15.838658 L14.089799,19.1420583 L10.9807163,20.1136466 C9.6204926,20.502282 9.0375396,21.8625057 9.42617493,23.2227293 C9.6204926,24.1943177 10.5920809,24.7772707 11.5636693,24.7772707 C11.7579869,24.7772707 12.1466223,24.582953 12.3409399,24.582953 L15.4500226,23.6113647 L17.3931993,29.6352124 L14.2841166,30.6068007 C12.9238929,30.995436 12.3409399,32.3556597 12.9238929,34.2988364 C13.1182106,35.2704247 14.089799,35.8533777 15.0613873,35.8533777 C15.255705,35.8533777 15.6443403,35.6590601 15.838658,35.6590601 L18.9477406,34.6874717 L19.919329,37.7965544 C20.1136466,38.7681427 21.085235,39.3510957 22.0568233,39.3510957 C22.251141,39.3510957 22.6397763,39.1567781 22.834094,39.1567781 C24.1943177,38.7681427 24.7772707,37.4079191 24.3886353,36.0476954 L23.417047,32.9386127 L29.6352124,30.8011184 L30.6068007,33.910201 C30.8011184,34.8817894 31.7727067,35.4647424 32.744295,35.4647424 C32.9386127,35.4647424 33.327248,35.2704247 33.5215657,35.2704247 C34.8817894,34.8817894 35.4647424,33.5215657 35.0761071,32.161342 L34.1045187,29.0522594 L37.2136014,28.080671 Z M21.8545775,27.9977751 L19.8179729,21.9174587 L26.0825413,19.8191388 L28.1191459,25.8994552 L21.8545775,27.9977751 Z" id="slack-icon"></path>
                </g>
            </g>
        </g>
    </g>
</svg>