<?xml version="1.0" encoding="UTF-8"?>
<svg width="49px" height="42px" viewBox="0 0 49 42" version="1.1" xmlns="http://www.w3.org/2000/svg" xmlns:xlink="http://www.w3.org/1999/xlink">
    <!-- Generator: Sketch 50.2 (55047) - http://www.bohemiancoding.com/sketch -->
    <title>Button</title>
    <desc>Created with Sketch.</desc>
    <defs></defs>
    <g id="Page-Designs" stroke="none" stroke-width="1" fill="none" fill-rule="evenodd">
        <g id="GoHarbor-Homepage-UI-v2.0" transform="translate(-749.000000, -2726.000000)" fill="#4500F4" fill-rule="nonzero">
            <g id="Group-10" transform="translate(724.333333, 2726.000000)">
                <g id="Button" transform="translate(24.000000, 0.000000)">
                    <path d="M30.126836,7.57656223 C30.1856458,3.71245907 33.3312142,0.597049453 37.2096429,0.597049453 C41.1242621,0.597049453 44.2984815,3.76900692 44.2984815,7.68588808 C44.2984815,11.5997534 41.1242621,14.7717108 37.2096429,14.7717108 C36.1374956,14.7717108 35.1241581,14.5274241 34.2141147,14.1036922 C33.9291135,11.3494349 32.3616071,8.97894894 30.126836,7.57656223 Z M25.4816185,22.0905107 C21.5677532,22.0905107 18.3927799,18.9185532 18.3927799,15.004688 C18.3927799,11.0878068 21.5677532,7.91584934 25.4816185,7.91584934 C29.3992536,7.91584934 32.5712111,11.0878068 32.5712111,15.0016721 C32.5712111,18.9185532 29.3992536,22.0905107 25.4816185,22.0905107 Z M28.4892102,22.5738063 C33.4925641,22.5738063 37.5662713,26.6467596 37.5632554,31.6508674 L37.5632554,39.0081198 L37.5127393,39.0081198 L37.0415072,39.2463748 C36.8002364,39.3700261 32.9361332,41.2700339 26.2649948,41.2700339 C22.8487506,41.2700339 18.6988923,40.7724128 13.9247457,39.2818114 L13.4180769,39.1227235 L13.3977197,39.0081198 L13.3977197,31.6508674 C13.3977197,26.6467596 17.4706729,22.5738063 22.4747808,22.5738063 L28.4892102,22.5738063 Z M40.2164806,15.2580223 C45.2205884,15.2580223 49.2935417,19.3279597 49.2935417,24.3320675 L49.2935417,31.6893199 L49.2407637,31.6893199 L48.7695316,31.9305908 C48.5456021,32.0429325 45.1497151,33.7122251 39.2566751,33.9278609 L39.2566751,31.6629309 C39.2566751,26.7885062 36.0025347,22.6650369 31.5518419,21.3425711 C33.1660945,19.7961759 34.1847098,17.6435877 34.2495513,15.2580223 L40.2164806,15.2580223 Z M13.0441071,14.7747267 C9.13024187,14.7747267 5.95526852,11.5997534 5.95526852,7.68588808 C5.95526852,3.7720228 9.13024187,0.597049453 13.0441071,0.597049453 C16.9587264,0.597049453 20.1336997,3.7720228 20.1336997,7.68588808 C20.1336997,7.82160292 20.1186203,7.95128599 20.1125885,8.08323098 C18.3784544,9.43208572 17.1615447,11.4142764 16.8139639,13.6792063 C15.7214594,14.3683361 14.4314144,14.7747267 13.0441071,14.7747267 Z M19.4121492,21.3425711 C14.9614563,22.6650369 11.7073159,26.7885062 11.7073159,31.6629309 L11.7073159,33.8833766 C8.73516089,33.7099632 5.31590082,33.1588101 1.48421842,31.9630115 L0.977549674,31.8039236 L0.960208333,31.6893199 L0.960208333,24.3320675 C0.960208333,19.3279597 5.03014568,15.2580223 10.0372694,15.2580223 L16.0516989,15.2580223 C16.2748744,15.2580223 16.495788,15.2753637 16.7167016,15.2904431 C16.7905908,17.6639449 17.8069442,19.8022077 19.4121492,21.3425711 Z" id="Mask"></path>
                </g>
            </g>
        </g>
    </g>
</svg>